<svg xmlns="http://www.w3.org/2000/svg" width="960" height="1010" viewBox="0 0 960 1010" role="img" aria-labelledby="t d">
<title id="t">Haunts Almanac: home-screen mockup</title>
<desc id="d">Phone frames at 390 x 844 showing headline, confirm queue and timeline, light and dark.</desc>
<rect width="960" height="1010" fill="#E9E9E6"/><text x="40.0" y="44.0" font-family="Inter, -apple-system, 'Helvetica Neue', Arial, sans-serif" font-size="24" font-weight="700" fill="#111" text-anchor="start">Almanac: home screen (light and dark)</text><text x="40.0" y="70.0" font-family="Inter, -apple-system, 'Helvetica Neue', Arial, sans-serif" font-size="14" font-weight="400" fill="#444" text-anchor="start">Headline (Line), confirm queue, timeline. Fictional venues. Concept only (D38); fonts are stand-ins.</text><g transform="translate(60,110)"><clipPath id="phalmanaclightline"><rect width="390" height="844" rx="52"/></clipPath><g clip-path="url(#phalmanaclightline)"><rect width="390" height="844" fill="#F6F2EA"/><text x="32.0" y="34.0" font-family="Inter, -apple-system, 'Helvetica Neue', Arial, sans-serif" font-size="16" font-weight="600" fill="#1C2127" text-anchor="start">9:41</text><rect x="300" y="24" width="17" height="10" rx="2" fill="#1C2127"/><rect x="324" y="22" width="26" height="13" rx="3.5" fill="none" stroke="#1C2127" stroke-width="1.2"/><rect x="326.5" y="24.5" width="19" height="8" rx="1.5" fill="#1C2127"/><g transform="translate(16,90) scale(0.26)"><text x="0.0" y="0.0" font-family="Newsreader, 'New York', Georgia, 'Times New Roman', serif" font-size="120.0" font-weight="600" fill="#1C2127" text-anchor="start" letter-spacing="-1.0">Haunts</text><rect x="0" y="22.0" width="446.0" height="7.0" fill="#B3412A"/><rect x="0" y="36.0" width="446.0" height="2.5" fill="#B3412A"/></g><circle cx="352" cy="78" r="20" fill="none" stroke="#8A8375" stroke-width="1.3"/><path d="M352,70 v16 M344,78 h16" stroke="#1C2127" stroke-width="2" stroke-linecap="round"/><rect x="16" y="116" width="358" height="3" fill="#1C2127"/><rect x="16" y="122" width="358" height="1" fill="#1C2127"/><text x="16.0" y="146.0" font-family="Inter, -apple-system, 'Helvetica Neue', Arial, sans-serif" font-size="11.5" font-weight="700" fill="#A63A24" text-anchor="start" letter-spacing="1.6">FROM YOUR JOURNAL</text><text x="16.0" y="174.0" font-family="Newsreader, 'New York', Georgia, 'Times New Roman', serif" font-size="22" font-weight="500" fill="#1C2127" text-anchor="start">Three years of The Brass</text><text x="16.0" y="202.0" font-family="Newsreader, 'New York', Georgia, 'Times New Roman', serif" font-size="22" font-weight="500" fill="#1C2127" text-anchor="start">Kettle. Your first visit was</text><text x="16.0" y="230.0" font-family="Newsreader, 'New York', Georgia, 'Times New Roman', serif" font-size="22" font-weight="500" fill="#1C2127" text-anchor="start">in March 2023.</text><circle cx="352" cy="146" r="18" fill="none" stroke="#8A8375" stroke-width="1.3"/><circle cx="346" cy="146" r="1.9" fill="#1C2127"/><circle cx="352" cy="146" r="1.9" fill="#1C2127"/><circle cx="358" cy="146" r="1.9" fill="#1C2127"/><text x="16.0" y="268.0" font-family="Inter, -apple-system, 'Helvetica Neue', Arial, sans-serif" font-size="12" font-weight="600" fill="#545B64" text-anchor="start" letter-spacing="1.6">TO CONFIRM</text><line x1="16" y1="276" x2="374" y2="276" stroke="#1C2127" stroke-width="1"/><text x="18.0" y="308.0" font-family="Inter, -apple-system, 'Helvetica Neue', Arial, sans-serif" font-size="16" font-weight="600" fill="#1C2127" text-anchor="start">Saturday afternoon</text><text x="18.0" y="329.0" font-family="Inter, -apple-system, 'Helvetica Neue', Arial, sans-serif" font-size="13.5" font-weight="400" fill="#545B64" text-anchor="start">about 2 hours · 2 places</text><text x="18.0" y="350.0" font-family="Inter, -apple-system, 'Helvetica Neue', Arial, sans-serif" font-size="13.5" font-weight="400" fill="#545B64" text-anchor="start">Mill Lane Bakery → Regent Cinema</text><rect x="278" y="298" width="90" height="36" rx="6" fill="#1F4E79"/><text x="323.0" y="321.0" font-family="Inter, -apple-system, 'Helvetica Neue', Arial, sans-serif" font-size="14" font-weight="600" fill="#FFFFFF" text-anchor="middle">Review</text><line x1="16" y1="364" x2="374" y2="364" stroke="#E4DCCB" stroke-width="1"/><text x="18.0" y="396.0" font-family="Inter, -apple-system, 'Helvetica Neue', Arial, sans-serif" font-size="16" font-weight="600" fill="#1C2127" text-anchor="start">Tuesday, 7:10pm to 9:25pm</text><rect x="270" y="380" width="104" height="24" rx="6" fill="none" stroke="#8A5300" stroke-dasharray="4 3" stroke-width="1.3"/><text x="322.0" y="397.0" font-family="Inter, -apple-system, 'Helvetica Neue', Arial, sans-serif" font-size="12.5" font-weight="600" fill="#8A5300" text-anchor="middle">Unconfirmed</text><text x="18.0" y="418.0" font-family="Inter, -apple-system, 'Helvetica Neue', Arial, sans-serif" font-size="13.5" font-weight="400" fill="#545B64" text-anchor="start">Near Kiln Street. Which place was it?</text><rect x="18" y="432" width="149.39999999999998" height="36" rx="6" fill="#FFFDF8" stroke="#8A8375" stroke-width="1.2"/><text x="30.0" y="455.0" font-family="Inter, -apple-system, 'Helvetica Neue', Arial, sans-serif" font-size="12.5" font-weight="500" fill="#1C2127" text-anchor="start">Kiln Street Kitchen</text><rect x="175.39999999999998" y="432" width="90.0" height="36" rx="6" fill="#FFFDF8" stroke="#8A8375" stroke-width="1.2"/><text x="187.4" y="455.0" font-family="Inter, -apple-system, 'Helvetica Neue', Arial, sans-serif" font-size="12.5" font-weight="500" fill="#1C2127" text-anchor="start">The Anchor</text><rect x="273.4" y="432" width="70.19999999999999" height="36" rx="6" fill="#FFFDF8" stroke="#8A8375" stroke-width="1.2"/><text x="285.4" y="455.0" font-family="Inter, -apple-system, 'Helvetica Neue', Arial, sans-serif" font-size="12.5" font-weight="500" fill="#1C2127" text-anchor="start">Search…</text><text x="16.0" y="512.0" font-family="Inter, -apple-system, 'Helvetica Neue', Arial, sans-serif" font-size="12" font-weight="600" fill="#545B64" text-anchor="start" letter-spacing="1.6">SUNDAY 21 SEPTEMBER</text><line x1="16" y1="520" x2="374" y2="520" stroke="#1C2127" stroke-width="1"/><text x="18.0" y="550.0" font-family="Newsreader, 'New York', Georgia, 'Times New Roman', serif" font-size="17" font-weight="600" fill="#1C2127" text-anchor="start">The Brass Kettle</text><text x="18.0" y="570.0" font-family="Inter, -apple-system, 'Helvetica Neue', Arial, sans-serif" font-size="13" font-weight="400" fill="#545B64" text-anchor="start">Café · Mill Road</text><text x="18.0" y="588.0" font-family="Inter, -apple-system, 'Helvetica Neue', Arial, sans-serif" font-size="13" font-weight="400" fill="#545B64" text-anchor="start">10:05am to 11:20am, about 1 hour</text><polygon points="25.5,599.5 27.2,603.7 31.7,604.0 28.2,606.9 29.3,611.3 25.5,608.8 21.7,611.3 22.8,606.9 19.3,604.0 23.8,603.7" fill="#A63A24" stroke="#A63A24" stroke-width="1.2"/><polygon points="41.5,599.5 43.2,603.7 47.7,604.0 44.2,606.9 45.3,611.3 41.5,608.8 37.7,611.3 38.8,606.9 35.3,604.0 39.8,603.7" fill="#A63A24" stroke="#A63A24" stroke-width="1.2"/><polygon points="57.5,599.5 59.2,603.7 63.7,604.0 60.2,606.9 61.3,611.3 57.5,608.8 53.7,611.3 54.8,606.9 51.3,604.0 55.8,603.7" fill="#A63A24" stroke="#A63A24" stroke-width="1.2"/><polygon points="73.5,599.5 75.2,603.7 79.7,604.0 76.2,606.9 77.3,611.3 73.5,608.8 69.7,611.3 70.8,606.9 67.3,604.0 71.8,603.7" fill="#A63A24" stroke="#A63A24" stroke-width="1.2"/><polygon points="89.5,599.5 91.2,603.7 95.7,604.0 92.2,606.9 93.3,611.3 89.5,608.8 85.7,611.3 86.8,606.9 83.3,604.0 87.8,603.7" fill="none" stroke="#8A8375" stroke-width="1.2"/><text x="104.0" y="611.0" font-family="Inter, -apple-system, 'Helvetica Neue', Arial, sans-serif" font-size="13" font-weight="600" fill="#1C2127" text-anchor="start">4/5</text><text x="18.0" y="632.0" font-family="Inter, -apple-system, 'Helvetica Neue', Arial, sans-serif" font-size="13" font-weight="400" fill="#545B64" text-anchor="start" font-style="italic">Note: Window seat, rain outside.</text><line x1="16" y1="640" x2="374" y2="640" stroke="#E4DCCB" stroke-width="1"/><text x="18.0" y="672.0" font-family="Newsreader, 'New York', Georgia, 'Times New Roman', serif" font-size="17" font-weight="600" fill="#1C2127" text-anchor="start">Northgate Theatre</text><text x="18.0" y="692.0" font-family="Inter, -apple-system, 'Helvetica Neue', Arial, sans-serif" font-size="13" font-weight="400" fill="#545B64" text-anchor="start">Theatre · Northgate</text><text x="18.0" y="710.0" font-family="Inter, -apple-system, 'Helvetica Neue', Arial, sans-serif" font-size="13" font-weight="400" fill="#545B64" text-anchor="start">7:30pm to 10:05pm, about 2½ hours</text><polygon points="25.5,721.5 27.2,725.7 31.7,726.0 28.2,728.9 29.3,733.3 25.5,730.8 21.7,733.3 22.8,728.9 19.3,726.0 23.8,725.7" fill="#A63A24" stroke="#A63A24" stroke-width="1.2"/><polygon points="41.5,721.5 43.2,725.7 47.7,726.0 44.2,728.9 45.3,733.3 41.5,730.8 37.7,733.3 38.8,728.9 35.3,726.0 39.8,725.7" fill="#A63A24" stroke="#A63A24" stroke-width="1.2"/><polygon points="57.5,721.5 59.2,725.7 63.7,726.0 60.2,728.9 61.3,733.3 57.5,730.8 53.7,733.3 54.8,728.9 51.3,726.0 55.8,725.7" fill="#A63A24" stroke="#A63A24" stroke-width="1.2"/><polygon points="73.5,721.5 75.2,725.7 79.7,726.0 76.2,728.9 77.3,733.3 73.5,730.8 69.7,733.3 70.8,728.9 67.3,726.0 71.8,725.7" fill="#A63A24" stroke="#A63A24" stroke-width="1.2"/><polygon points="89.5,721.5 91.2,725.7 95.7,726.0 92.2,728.9 93.3,733.3 89.5,730.8 85.7,733.3 86.8,728.9 83.3,726.0 87.8,725.7" fill="#A63A24" stroke="#A63A24" stroke-width="1.2"/><text x="104.0" y="733.0" font-family="Inter, -apple-system, 'Helvetica Neue', Arial, sans-serif" font-size="13" font-weight="600" fill="#1C2127" text-anchor="start">5/5</text><line x1="16" y1="742" x2="374" y2="742" stroke="#E4DCCB" stroke-width="1"/><rect x="0" y="760" width="390" height="84" fill="#F6F2EA"/><line x1="0" y1="760" x2="390" y2="760" stroke="#E4DCCB" stroke-width="1"/><path d="M41,774 h13 l4,4 v16 h-17 z M45,782 h9 M45,787 h9" fill="none" stroke="#1F4E79" stroke-width="1.8" stroke-linecap="round" stroke-linejoin="round"/><text x="49.0" y="812.0" font-family="Inter, -apple-system, 'Helvetica Neue', Arial, sans-serif" font-size="11.5" font-weight="600" fill="#1F4E79" text-anchor="middle">Journal</text><path d="M136,780 l3,-7 h14 l3,7 z M138,780 v12 h16 v-12 M144,792 v-6 h4 v6" fill="none" stroke="#545B64" stroke-width="1.8" stroke-linecap="round" stroke-linejoin="round"/><text x="146.0" y="812.0" font-family="Inter, -apple-system, 'Helvetica Neue', Arial, sans-serif" font-size="11.5" font-weight="500" fill="#545B64" text-anchor="middle">Places</text><rect x="234" y="774" width="18" height="20" rx="3" fill="none" stroke="#545B64" stroke-width="1.8" stroke-linecap="round" stroke-linejoin="round"/><path d="M238,789 l4,-5 l3,3 l3,-4" fill="none" stroke="#545B64" stroke-width="1.8" stroke-linecap="round" stroke-linejoin="round"/><text x="243.0" y="812.0" font-family="Inter, -apple-system, 'Helvetica Neue', Arial, sans-serif" font-size="11.5" font-weight="500" fill="#545B64" text-anchor="middle">Portrait</text><path d="M331,778 h18 M331,785 h18 M331,792 h18" fill="none" stroke="#545B64" stroke-width="1.8" stroke-linecap="round" stroke-linejoin="round"/><circle cx="337" cy="778" r="2.4" fill="#545B64"/><circle cx="344" cy="785" r="2.4" fill="#545B64"/><circle cx="339" cy="792" r="2.4" fill="#545B64"/><text x="340.0" y="812.0" font-family="Inter, -apple-system, 'Helvetica Neue', Arial, sans-serif" font-size="11.5" font-weight="500" fill="#545B64" text-anchor="middle">Settings</text><rect x="128" y="830" width="134" height="5" rx="2.5" fill="#1C2127"/></g><rect x="-1" y="-1" width="392" height="846" rx="53" fill="none" stroke="#0B0B0C" stroke-width="10"/><rect x="140" y="11" width="110" height="30" rx="15" fill="#0B0B0C"/></g><g transform="translate(510,110)"><clipPath id="phalmanacdarkline"><rect width="390" height="844" rx="52"/></clipPath><g clip-path="url(#phalmanacdarkline)"><rect width="390" height="844" fill="#16181B"/><text x="32.0" y="34.0" font-family="Inter, -apple-system, 'Helvetica Neue', Arial, sans-serif" font-size="16" font-weight="600" fill="#EDE8DE" text-anchor="start">9:41</text><rect x="300" y="24" width="17" height="10" rx="2" fill="#EDE8DE"/><rect x="324" y="22" width="26" height="13" rx="3.5" fill="none" stroke="#EDE8DE" stroke-width="1.2"/><rect x="326.5" y="24.5" width="19" height="8" rx="1.5" fill="#EDE8DE"/><g transform="translate(16,90) scale(0.26)"><text x="0.0" y="0.0" font-family="Newsreader, 'New York', Georgia, 'Times New Roman', serif" font-size="120.0" font-weight="600" fill="#EDE8DE" text-anchor="start" letter-spacing="-1.0">Haunts</text><rect x="0" y="22.0" width="446.0" height="7.0" fill="#E58A6F"/><rect x="0" y="36.0" width="446.0" height="2.5" fill="#E58A6F"/></g><circle cx="352" cy="78" r="20" fill="none" stroke="#7B766D" stroke-width="1.3"/><path d="M352,70 v16 M344,78 h16" stroke="#EDE8DE" stroke-width="2" stroke-linecap="round"/><rect x="16" y="116" width="358" height="3" fill="#EDE8DE"/><rect x="16" y="122" width="358" height="1" fill="#EDE8DE"/><text x="16.0" y="146.0" font-family="Inter, -apple-system, 'Helvetica Neue', Arial, sans-serif" font-size="11.5" font-weight="700" fill="#E8957C" text-anchor="start" letter-spacing="1.6">FROM YOUR JOURNAL</text><text x="16.0" y="174.0" font-family="Newsreader, 'New York', Georgia, 'Times New Roman', serif" font-size="22" font-weight="500" fill="#EDE8DE" text-anchor="start">Three years of The Brass</text><text x="16.0" y="202.0" font-family="Newsreader, 'New York', Georgia, 'Times New Roman', serif" font-size="22" font-weight="500" fill="#EDE8DE" text-anchor="start">Kettle. Your first visit was</text><text x="16.0" y="230.0" font-family="Newsreader, 'New York', Georgia, 'Times New Roman', serif" font-size="22" font-weight="500" fill="#EDE8DE" text-anchor="start">in March 2023.</text><circle cx="352" cy="146" r="18" fill="none" stroke="#7B766D" stroke-width="1.3"/><circle cx="346" cy="146" r="1.9" fill="#EDE8DE"/><circle cx="352" cy="146" r="1.9" fill="#EDE8DE"/><circle cx="358" cy="146" r="1.9" fill="#EDE8DE"/><text x="16.0" y="268.0" font-family="Inter, -apple-system, 'Helvetica Neue', Arial, sans-serif" font-size="12" font-weight="600" fill="#A9A398" text-anchor="start" letter-spacing="1.6">TO CONFIRM</text><line x1="16" y1="276" x2="374" y2="276" stroke="#EDE8DE" stroke-width="1"/><text x="18.0" y="308.0" font-family="Inter, -apple-system, 'Helvetica Neue', Arial, sans-serif" font-size="16" font-weight="600" fill="#EDE8DE" text-anchor="start">Saturday afternoon</text><text x="18.0" y="329.0" font-family="Inter, -apple-system, 'Helvetica Neue', Arial, sans-serif" font-size="13.5" font-weight="400" fill="#A9A398" text-anchor="start">about 2 hours · 2 places</text><text x="18.0" y="350.0" font-family="Inter, -apple-system, 'Helvetica Neue', Arial, sans-serif" font-size="13.5" font-weight="400" fill="#A9A398" text-anchor="start">Mill Lane Bakery → Regent Cinema</text><rect x="278" y="298" width="90" height="36" rx="6" fill="#8DB8E8"/><text x="323.0" y="321.0" font-family="Inter, -apple-system, 'Helvetica Neue', Arial, sans-serif" font-size="14" font-weight="600" fill="#0E1A26" text-anchor="middle">Review</text><line x1="16" y1="364" x2="374" y2="364" stroke="#33373D" stroke-width="1"/><text x="18.0" y="396.0" font-family="Inter, -apple-system, 'Helvetica Neue', Arial, sans-serif" font-size="16" font-weight="600" fill="#EDE8DE" text-anchor="start">Tuesday, 7:10pm to 9:25pm</text><rect x="270" y="380" width="104" height="24" rx="6" fill="none" stroke="#E0B25A" stroke-dasharray="4 3" stroke-width="1.3"/><text x="322.0" y="397.0" font-family="Inter, -apple-system, 'Helvetica Neue', Arial, sans-serif" font-size="12.5" font-weight="600" fill="#E0B25A" text-anchor="middle">Unconfirmed</text><text x="18.0" y="418.0" font-family="Inter, -apple-system, 'Helvetica Neue', Arial, sans-serif" font-size="13.5" font-weight="400" fill="#A9A398" text-anchor="start">Near Kiln Street. Which place was it?</text><rect x="18" y="432" width="149.39999999999998" height="36" rx="6" fill="#202328" stroke="#7B766D" stroke-width="1.2"/><text x="30.0" y="455.0" font-family="Inter, -apple-system, 'Helvetica Neue', Arial, sans-serif" font-size="12.5" font-weight="500" fill="#EDE8DE" text-anchor="start">Kiln Street Kitchen</text><rect x="175.39999999999998" y="432" width="90.0" height="36" rx="6" fill="#202328" stroke="#7B766D" stroke-width="1.2"/><text x="187.4" y="455.0" font-family="Inter, -apple-system, 'Helvetica Neue', Arial, sans-serif" font-size="12.5" font-weight="500" fill="#EDE8DE" text-anchor="start">The Anchor</text><rect x="273.4" y="432" width="70.19999999999999" height="36" rx="6" fill="#202328" stroke="#7B766D" stroke-width="1.2"/><text x="285.4" y="455.0" font-family="Inter, -apple-system, 'Helvetica Neue', Arial, sans-serif" font-size="12.5" font-weight="500" fill="#EDE8DE" text-anchor="start">Search…</text><text x="16.0" y="512.0" font-family="Inter, -apple-system, 'Helvetica Neue', Arial, sans-serif" font-size="12" font-weight="600" fill="#A9A398" text-anchor="start" letter-spacing="1.6">SUNDAY 21 SEPTEMBER</text><line x1="16" y1="520" x2="374" y2="520" stroke="#EDE8DE" stroke-width="1"/><text x="18.0" y="550.0" font-family="Newsreader, 'New York', Georgia, 'Times New Roman', serif" font-size="17" font-weight="600" fill="#EDE8DE" text-anchor="start">The Brass Kettle</text><text x="18.0" y="570.0" font-family="Inter, -apple-system, 'Helvetica Neue', Arial, sans-serif" font-size="13" font-weight="400" fill="#A9A398" text-anchor="start">Café · Mill Road</text><text x="18.0" y="588.0" font-family="Inter, -apple-system, 'Helvetica Neue', Arial, sans-serif" font-size="13" font-weight="400" fill="#A9A398" text-anchor="start">10:05am to 11:20am, about 1 hour</text><polygon points="25.5,599.5 27.2,603.7 31.7,604.0 28.2,606.9 29.3,611.3 25.5,608.8 21.7,611.3 22.8,606.9 19.3,604.0 23.8,603.7" fill="#E8957C" stroke="#E8957C" stroke-width="1.2"/><polygon points="41.5,599.5 43.2,603.7 47.7,604.0 44.2,606.9 45.3,611.3 41.5,608.8 37.7,611.3 38.8,606.9 35.3,604.0 39.8,603.7" fill="#E8957C" stroke="#E8957C" stroke-width="1.2"/><polygon points="57.5,599.5 59.2,603.7 63.7,604.0 60.2,606.9 61.3,611.3 57.5,608.8 53.7,611.3 54.8,606.9 51.3,604.0 55.8,603.7" fill="#E8957C" stroke="#E8957C" stroke-width="1.2"/><polygon points="73.5,599.5 75.2,603.7 79.7,604.0 76.2,606.9 77.3,611.3 73.5,608.8 69.7,611.3 70.8,606.9 67.3,604.0 71.8,603.7" fill="#E8957C" stroke="#E8957C" stroke-width="1.2"/><polygon points="89.5,599.5 91.2,603.7 95.7,604.0 92.2,606.9 93.3,611.3 89.5,608.8 85.7,611.3 86.8,606.9 83.3,604.0 87.8,603.7" fill="none" stroke="#7B766D" stroke-width="1.2"/><text x="104.0" y="611.0" font-family="Inter, -apple-system, 'Helvetica Neue', Arial, sans-serif" font-size="13" font-weight="600" fill="#EDE8DE" text-anchor="start">4/5</text><text x="18.0" y="632.0" font-family="Inter, -apple-system, 'Helvetica Neue', Arial, sans-serif" font-size="13" font-weight="400" fill="#A9A398" text-anchor="start" font-style="italic">Note: Window seat, rain outside.</text><line x1="16" y1="640" x2="374" y2="640" stroke="#33373D" stroke-width="1"/><text x="18.0" y="672.0" font-family="Newsreader, 'New York', Georgia, 'Times New Roman', serif" font-size="17" font-weight="600" fill="#EDE8DE" text-anchor="start">Northgate Theatre</text><text x="18.0" y="692.0" font-family="Inter, -apple-system, 'Helvetica Neue', Arial, sans-serif" font-size="13" font-weight="400" fill="#A9A398" text-anchor="start">Theatre · Northgate</text><text x="18.0" y="710.0" font-family="Inter, -apple-system, 'Helvetica Neue', Arial, sans-serif" font-size="13" font-weight="400" fill="#A9A398" text-anchor="start">7:30pm to 10:05pm, about 2½ hours</text><polygon points="25.5,721.5 27.2,725.7 31.7,726.0 28.2,728.9 29.3,733.3 25.5,730.8 21.7,733.3 22.8,728.9 19.3,726.0 23.8,725.7" fill="#E8957C" stroke="#E8957C" stroke-width="1.2"/><polygon points="41.5,721.5 43.2,725.7 47.7,726.0 44.2,728.9 45.3,733.3 41.5,730.8 37.7,733.3 38.8,728.9 35.3,726.0 39.8,725.7" fill="#E8957C" stroke="#E8957C" stroke-width="1.2"/><polygon points="57.5,721.5 59.2,725.7 63.7,726.0 60.2,728.9 61.3,733.3 57.5,730.8 53.7,733.3 54.8,728.9 51.3,726.0 55.8,725.7" fill="#E8957C" stroke="#E8957C" stroke-width="1.2"/><polygon points="73.5,721.5 75.2,725.7 79.7,726.0 76.2,728.9 77.3,733.3 73.5,730.8 69.7,733.3 70.8,728.9 67.3,726.0 71.8,725.7" fill="#E8957C" stroke="#E8957C" stroke-width="1.2"/><polygon points="89.5,721.5 91.2,725.7 95.7,726.0 92.2,728.9 93.3,733.3 89.5,730.8 85.7,733.3 86.8,728.9 83.3,726.0 87.8,725.7" fill="#E8957C" stroke="#E8957C" stroke-width="1.2"/><text x="104.0" y="733.0" font-family="Inter, -apple-system, 'Helvetica Neue', Arial, sans-serif" font-size="13" font-weight="600" fill="#EDE8DE" text-anchor="start">5/5</text><line x1="16" y1="742" x2="374" y2="742" stroke="#33373D" stroke-width="1"/><rect x="0" y="760" width="390" height="84" fill="#16181B"/><line x1="0" y1="760" x2="390" y2="760" stroke="#33373D" stroke-width="1"/><path d="M41,774 h13 l4,4 v16 h-17 z M45,782 h9 M45,787 h9" fill="none" stroke="#8DB8E8" stroke-width="1.8" stroke-linecap="round" stroke-linejoin="round"/><text x="49.0" y="812.0" font-family="Inter, -apple-system, 'Helvetica Neue', Arial, sans-serif" font-size="11.5" font-weight="600" fill="#8DB8E8" text-anchor="middle">Journal</text><path d="M136,780 l3,-7 h14 l3,7 z M138,780 v12 h16 v-12 M144,792 v-6 h4 v6" fill="none" stroke="#A9A398" stroke-width="1.8" stroke-linecap="round" stroke-linejoin="round"/><text x="146.0" y="812.0" font-family="Inter, -apple-system, 'Helvetica Neue', Arial, sans-serif" font-size="11.5" font-weight="500" fill="#A9A398" text-anchor="middle">Places</text><rect x="234" y="774" width="18" height="20" rx="3" fill="none" stroke="#A9A398" stroke-width="1.8" stroke-linecap="round" stroke-linejoin="round"/><path d="M238,789 l4,-5 l3,3 l3,-4" fill="none" stroke="#A9A398" stroke-width="1.8" stroke-linecap="round" stroke-linejoin="round"/><text x="243.0" y="812.0" font-family="Inter, -apple-system, 'Helvetica Neue', Arial, sans-serif" font-size="11.5" font-weight="500" fill="#A9A398" text-anchor="middle">Portrait</text><path d="M331,778 h18 M331,785 h18 M331,792 h18" fill="none" stroke="#A9A398" stroke-width="1.8" stroke-linecap="round" stroke-linejoin="round"/><circle cx="337" cy="778" r="2.4" fill="#A9A398"/><circle cx="344" cy="785" r="2.4" fill="#A9A398"/><circle cx="339" cy="792" r="2.4" fill="#A9A398"/><text x="340.0" y="812.0" font-family="Inter, -apple-system, 'Helvetica Neue', Arial, sans-serif" font-size="11.5" font-weight="500" fill="#A9A398" text-anchor="middle">Settings</text><rect x="128" y="830" width="134" height="5" rx="2.5" fill="#EDE8DE"/></g><rect x="-1" y="-1" width="392" height="846" rx="53" fill="none" stroke="#0B0B0C" stroke-width="10"/><rect x="140" y="11" width="110" height="30" rx="15" fill="#0B0B0C"/></g><text x="60.0" y="990.0" font-family="Inter, -apple-system, 'Helvetica Neue', Arial, sans-serif" font-size="13" font-weight="400" fill="#333" text-anchor="start">No count, badge or progress on the queue (CONF-1). No option pre-selected (CONF-3). Rating always also as text (A11Y-2). No pin icons.</text>
</svg>
