<svg xmlns="http://www.w3.org/2000/svg" width="960" height="1010" viewBox="0 0 960 1010" role="img" aria-labelledby="t d">
<title id="t">Haunts Contour: home-screen mockup</title>
<desc id="d">Phone frames at 390 x 844 showing headline, confirm queue and timeline, light and dark.</desc>
<rect width="960" height="1010" fill="#E9E9E6"/><text x="40.0" y="44.0" font-family="Inter, -apple-system, 'Helvetica Neue', Arial, sans-serif" font-size="24" font-weight="700" fill="#111" text-anchor="start">Contour: home screen (light and dark)</text><text x="40.0" y="70.0" font-family="Inter, -apple-system, 'Helvetica Neue', Arial, sans-serif" font-size="14" font-weight="400" fill="#444" text-anchor="start">Headline (Line), confirm queue, timeline. Fictional venues. Concept only (D38); fonts are stand-ins.</text><g transform="translate(60,110)"><clipPath id="phcontourlightline"><rect width="390" height="844" rx="52"/></clipPath><g clip-path="url(#phcontourlightline)"><rect width="390" height="844" fill="#F3F5F0"/><clipPath id="hxphcontourlightline"><rect x="170" y="50" width="150" height="62"/></clipPath><g clip-path="url(#hxphcontourlightline)"><path d="M150,40 C200,28 260,58 340,34" fill="none" stroke="#9A6B3F" stroke-width="1.2" opacity="0.45"/><path d="M150,51 C200,39 260,69 340,45" fill="none" stroke="#9A6B3F" stroke-width="1.2" opacity="0.45"/><path d="M150,62 C200,50 260,80 340,56" fill="none" stroke="#9A6B3F" stroke-width="1.2" opacity="0.45"/><path d="M150,73 C200,61 260,91 340,67" fill="none" stroke="#9A6B3F" stroke-width="1.2" opacity="0.45"/><path d="M150,84 C200,72 260,102 340,78" fill="none" stroke="#9A6B3F" stroke-width="1.2" opacity="0.45"/><path d="M150,95 C200,83 260,113 340,89" fill="none" stroke="#9A6B3F" stroke-width="1.2" opacity="0.45"/><path d="M150,106 C200,94 260,124 340,100" fill="none" stroke="#9A6B3F" stroke-width="1.2" opacity="0.45"/><path d="M150,117 C200,105 260,135 340,111" fill="none" stroke="#9A6B3F" stroke-width="1.2" opacity="0.45"/></g><text x="32.0" y="34.0" font-family="'Source Sans 3', 'Gill Sans', 'Helvetica Neue', sans-serif" font-size="16" font-weight="600" fill="#1D2A24" text-anchor="start">9:41</text><rect x="300" y="24" width="17" height="10" rx="2" fill="#1D2A24"/><rect x="324" y="22" width="26" height="13" rx="3.5" fill="none" stroke="#1D2A24" stroke-width="1.2"/><rect x="326.5" y="24.5" width="19" height="8" rx="1.5" fill="#1D2A24"/><g transform="translate(16,90) scale(0.26)"><defs><path id="cplight00" d="M0,0 C140.0,-34.0 300.0,-34.0 470.0,0"/></defs><text font-family="'Source Sans 3', 'Gill Sans', 'Helvetica Neue', sans-serif" font-size="78.0" font-weight="600" fill="#1D2A24" letter-spacing="18.0"><textPath href="#cplight00">HAUNTS</textPath></text><path d="M-10.0,26.0 C140.0,-6.0 300.0,-6.0 480.0,26.0" fill="none" stroke="#9A6B3F" stroke-width="3.0"/><path d="M20.0,42.0 C160.0,16.0 290.0,16.0 450.0,42.0" fill="none" stroke="#9A6B3F" stroke-width="2.0" opacity="0.7"/></g><circle cx="352" cy="78" r="20" fill="none" stroke="#7D8A83" stroke-width="1.3"/><path d="M352,70 v16 M344,78 h16" stroke="#1D2A24" stroke-width="2" stroke-linecap="round"/><rect x="16" y="116" width="358" height="134" rx="14" fill="#FFFFFF"/><clipPath id="pncontour116F3F5F0"><rect x="16" y="116" width="358" height="134" rx="14"/></clipPath><g clip-path="url(#pncontour116F3F5F0)"><path d="M18,116 C12,156.2 26,196.39999999999998 18,250" fill="none" stroke="#9A6B3F" stroke-width="1.2" opacity="0.7"/><path d="M21,116 C15,156.2 29,196.39999999999998 21,250" fill="none" stroke="#9A6B3F" stroke-width="1.2" opacity="0.7"/><path d="M24,116 C18,156.2 32,196.39999999999998 24,250" fill="none" stroke="#9A6B3F" stroke-width="1.2" opacity="0.7"/></g><text x="40.0" y="146.0" font-family="'Source Sans 3', 'Gill Sans', 'Helvetica Neue', sans-serif" font-size="11.5" font-weight="700" fill="#86592F" text-anchor="start" letter-spacing="2">FROM YOUR JOURNAL</text><text x="40.0" y="174.0" font-family="'Source Serif 4', Georgia, serif" font-size="20" font-weight="500" fill="#1D2A24" text-anchor="start" font-style="italic">Three years of The Brass</text><text x="40.0" y="200.0" font-family="'Source Serif 4', Georgia, serif" font-size="20" font-weight="500" fill="#1D2A24" text-anchor="start" font-style="italic">Kettle. Your first visit was</text><text x="40.0" y="226.0" font-family="'Source Serif 4', Georgia, serif" font-size="20" font-weight="500" fill="#1D2A24" text-anchor="start" font-style="italic">in March 2023.</text><circle cx="344" cy="144" r="18" fill="none" stroke="#7D8A83" stroke-width="1.3"/><circle cx="338" cy="144" r="1.9" fill="#1D2A24"/><circle cx="344" cy="144" r="1.9" fill="#1D2A24"/><circle cx="350" cy="144" r="1.9" fill="#1D2A24"/><text x="16.0" y="280.0" font-family="'Source Sans 3', 'Gill Sans', 'Helvetica Neue', sans-serif" font-size="12" font-weight="700" fill="#4F5E57" text-anchor="start" letter-spacing="2.2">TO CONFIRM</text><rect x="16" y="296" width="358" height="88" rx="14" fill="#FFFFFF"/><text x="32.0" y="320.0" font-family="'Source Sans 3', 'Gill Sans', 'Helvetica Neue', sans-serif" font-size="16" font-weight="600" fill="#1D2A24" text-anchor="start">Saturday afternoon</text><text x="32.0" y="341.0" font-family="'Source Sans 3', 'Gill Sans', 'Helvetica Neue', sans-serif" font-size="13.5" font-weight="400" fill="#4F5E57" text-anchor="start">about 2 hours · 2 places</text><text x="32.0" y="362.0" font-family="'Source Sans 3', 'Gill Sans', 'Helvetica Neue', sans-serif" font-size="13.5" font-weight="400" fill="#4F5E57" text-anchor="start">Mill Lane Bakery → Regent Cinema</text><rect x="264" y="310" width="90" height="36" rx="14" fill="#2E6B4A"/><text x="309.0" y="333.0" font-family="'Source Sans 3', 'Gill Sans', 'Helvetica Neue', sans-serif" font-size="14" font-weight="600" fill="#FFFFFF" text-anchor="middle">Review</text><rect x="16" y="394" width="358" height="108" rx="14" fill="#FFFFFF"/><text x="32.0" y="418.0" font-family="'Source Sans 3', 'Gill Sans', 'Helvetica Neue', sans-serif" font-size="16" font-weight="600" fill="#1D2A24" text-anchor="start">Tuesday, 7:10pm to 9:25pm</text><rect x="256" y="402" width="104" height="24" rx="12" fill="none" stroke="#86592F" stroke-dasharray="4 3" stroke-width="1.3"/><text x="308.0" y="419.0" font-family="'Source Sans 3', 'Gill Sans', 'Helvetica Neue', sans-serif" font-size="12.5" font-weight="600" fill="#86592F" text-anchor="middle">Unconfirmed</text><text x="32.0" y="440.0" font-family="'Source Sans 3', 'Gill Sans', 'Helvetica Neue', sans-serif" font-size="13.5" font-weight="400" fill="#4F5E57" text-anchor="start">Near Kiln Street. Which place was it?</text><rect x="32" y="454" width="149.39999999999998" height="36" rx="18" fill="#FFFFFF" stroke="#7D8A83" stroke-width="1.2"/><text x="44.0" y="477.0" font-family="'Source Sans 3', 'Gill Sans', 'Helvetica Neue', sans-serif" font-size="12.5" font-weight="500" fill="#1D2A24" text-anchor="start">Kiln Street Kitchen</text><rect x="189.39999999999998" y="454" width="90.0" height="36" rx="18" fill="#FFFFFF" stroke="#7D8A83" stroke-width="1.2"/><text x="201.4" y="477.0" font-family="'Source Sans 3', 'Gill Sans', 'Helvetica Neue', sans-serif" font-size="12.5" font-weight="500" fill="#1D2A24" text-anchor="start">The Anchor</text><rect x="287.4" y="454" width="70.19999999999999" height="36" rx="18" fill="#FFFFFF" stroke="#7D8A83" stroke-width="1.2"/><text x="299.4" y="477.0" font-family="'Source Sans 3', 'Gill Sans', 'Helvetica Neue', sans-serif" font-size="12.5" font-weight="500" fill="#1D2A24" text-anchor="start">Search…</text><text x="16.0" y="534.0" font-family="'Source Sans 3', 'Gill Sans', 'Helvetica Neue', sans-serif" font-size="12" font-weight="700" fill="#4F5E57" text-anchor="start" letter-spacing="2.2">SUNDAY 21 SEPTEMBER</text><rect x="16" y="550" width="358" height="116" rx="14" fill="#FFFFFF"/><text x="32.0" y="572.0" font-family="'Source Sans 3', 'Gill Sans', 'Helvetica Neue', sans-serif" font-size="16" font-weight="600" fill="#1D2A24" text-anchor="start" font-style="italic">The Brass Kettle</text><text x="32.0" y="592.0" font-family="'Source Sans 3', 'Gill Sans', 'Helvetica Neue', sans-serif" font-size="13" font-weight="400" fill="#4F5E57" text-anchor="start">Café · Mill Road</text><text x="32.0" y="610.0" font-family="'Source Sans 3', 'Gill Sans', 'Helvetica Neue', sans-serif" font-size="13" font-weight="400" fill="#4F5E57" text-anchor="start">10:05am to 11:20am, about 1 hour</text><polygon points="39.5,621.5 41.2,625.7 45.7,626.0 42.2,628.9 43.3,633.3 39.5,630.8 35.7,633.3 36.8,628.9 33.3,626.0 37.8,625.7" fill="#86592F" stroke="#86592F" stroke-width="1.2"/><polygon points="55.5,621.5 57.2,625.7 61.7,626.0 58.2,628.9 59.3,633.3 55.5,630.8 51.7,633.3 52.8,628.9 49.3,626.0 53.8,625.7" fill="#86592F" stroke="#86592F" stroke-width="1.2"/><polygon points="71.5,621.5 73.2,625.7 77.7,626.0 74.2,628.9 75.3,633.3 71.5,630.8 67.7,633.3 68.8,628.9 65.3,626.0 69.8,625.7" fill="#86592F" stroke="#86592F" stroke-width="1.2"/><polygon points="87.5,621.5 89.2,625.7 93.7,626.0 90.2,628.9 91.3,633.3 87.5,630.8 83.7,633.3 84.8,628.9 81.3,626.0 85.8,625.7" fill="#86592F" stroke="#86592F" stroke-width="1.2"/><polygon points="103.5,621.5 105.2,625.7 109.7,626.0 106.2,628.9 107.3,633.3 103.5,630.8 99.7,633.3 100.8,628.9 97.3,626.0 101.8,625.7" fill="none" stroke="#7D8A83" stroke-width="1.2"/><text x="118.0" y="633.0" font-family="'Source Sans 3', 'Gill Sans', 'Helvetica Neue', sans-serif" font-size="13" font-weight="600" fill="#1D2A24" text-anchor="start">4/5</text><text x="32.0" y="654.0" font-family="'Source Sans 3', 'Gill Sans', 'Helvetica Neue', sans-serif" font-size="13" font-weight="400" fill="#4F5E57" text-anchor="start" font-style="italic">Note: Window seat, rain outside.</text><rect x="0" y="760" width="390" height="84" fill="#FFFFFF"/><line x1="0" y1="760" x2="390" y2="760" stroke="#DDE4DC" stroke-width="1"/><path d="M41,774 h13 l4,4 v16 h-17 z M45,782 h9 M45,787 h9" fill="none" stroke="#2E6B4A" stroke-width="1.8" stroke-linecap="round" stroke-linejoin="round"/><text x="49.0" y="812.0" font-family="'Source Sans 3', 'Gill Sans', 'Helvetica Neue', sans-serif" font-size="11.5" font-weight="600" fill="#2E6B4A" text-anchor="middle">Journal</text><path d="M136,780 l3,-7 h14 l3,7 z M138,780 v12 h16 v-12 M144,792 v-6 h4 v6" fill="none" stroke="#4F5E57" stroke-width="1.8" stroke-linecap="round" stroke-linejoin="round"/><text x="146.0" y="812.0" font-family="'Source Sans 3', 'Gill Sans', 'Helvetica Neue', sans-serif" font-size="11.5" font-weight="500" fill="#4F5E57" text-anchor="middle">Places</text><rect x="234" y="774" width="18" height="20" rx="3" fill="none" stroke="#4F5E57" stroke-width="1.8" stroke-linecap="round" stroke-linejoin="round"/><path d="M238,789 l4,-5 l3,3 l3,-4" fill="none" stroke="#4F5E57" stroke-width="1.8" stroke-linecap="round" stroke-linejoin="round"/><text x="243.0" y="812.0" font-family="'Source Sans 3', 'Gill Sans', 'Helvetica Neue', sans-serif" font-size="11.5" font-weight="500" fill="#4F5E57" text-anchor="middle">Portrait</text><path d="M331,778 h18 M331,785 h18 M331,792 h18" fill="none" stroke="#4F5E57" stroke-width="1.8" stroke-linecap="round" stroke-linejoin="round"/><circle cx="337" cy="778" r="2.4" fill="#4F5E57"/><circle cx="344" cy="785" r="2.4" fill="#4F5E57"/><circle cx="339" cy="792" r="2.4" fill="#4F5E57"/><text x="340.0" y="812.0" font-family="'Source Sans 3', 'Gill Sans', 'Helvetica Neue', sans-serif" font-size="11.5" font-weight="500" fill="#4F5E57" text-anchor="middle">Settings</text><rect x="128" y="830" width="134" height="5" rx="2.5" fill="#1D2A24"/></g><rect x="-1" y="-1" width="392" height="846" rx="53" fill="none" stroke="#0B0B0C" stroke-width="10"/><rect x="140" y="11" width="110" height="30" rx="15" fill="#0B0B0C"/></g><g transform="translate(510,110)"><clipPath id="phcontourdarkline"><rect width="390" height="844" rx="52"/></clipPath><g clip-path="url(#phcontourdarkline)"><rect width="390" height="844" fill="#121815"/><clipPath id="hxphcontourdarkline"><rect x="170" y="50" width="150" height="62"/></clipPath><g clip-path="url(#hxphcontourdarkline)"><path d="M150,40 C200,28 260,58 340,34" fill="none" stroke="#D4A373" stroke-width="1.2" opacity="0.45"/><path d="M150,51 C200,39 260,69 340,45" fill="none" stroke="#D4A373" stroke-width="1.2" opacity="0.45"/><path d="M150,62 C200,50 260,80 340,56" fill="none" stroke="#D4A373" stroke-width="1.2" opacity="0.45"/><path d="M150,73 C200,61 260,91 340,67" fill="none" stroke="#D4A373" stroke-width="1.2" opacity="0.45"/><path d="M150,84 C200,72 260,102 340,78" fill="none" stroke="#D4A373" stroke-width="1.2" opacity="0.45"/><path d="M150,95 C200,83 260,113 340,89" fill="none" stroke="#D4A373" stroke-width="1.2" opacity="0.45"/><path d="M150,106 C200,94 260,124 340,100" fill="none" stroke="#D4A373" stroke-width="1.2" opacity="0.45"/><path d="M150,117 C200,105 260,135 340,111" fill="none" stroke="#D4A373" stroke-width="1.2" opacity="0.45"/></g><text x="32.0" y="34.0" font-family="'Source Sans 3', 'Gill Sans', 'Helvetica Neue', sans-serif" font-size="16" font-weight="600" fill="#E6EDE8" text-anchor="start">9:41</text><rect x="300" y="24" width="17" height="10" rx="2" fill="#E6EDE8"/><rect x="324" y="22" width="26" height="13" rx="3.5" fill="none" stroke="#E6EDE8" stroke-width="1.2"/><rect x="326.5" y="24.5" width="19" height="8" rx="1.5" fill="#E6EDE8"/><g transform="translate(16,90) scale(0.26)"><defs><path id="cpdark00" d="M0,0 C140.0,-34.0 300.0,-34.0 470.0,0"/></defs><text font-family="'Source Sans 3', 'Gill Sans', 'Helvetica Neue', sans-serif" font-size="78.0" font-weight="600" fill="#E6EDE8" letter-spacing="18.0"><textPath href="#cpdark00">HAUNTS</textPath></text><path d="M-10.0,26.0 C140.0,-6.0 300.0,-6.0 480.0,26.0" fill="none" stroke="#D4A373" stroke-width="3.0"/><path d="M20.0,42.0 C160.0,16.0 290.0,16.0 450.0,42.0" fill="none" stroke="#D4A373" stroke-width="2.0" opacity="0.7"/></g><circle cx="352" cy="78" r="20" fill="none" stroke="#6F7F77" stroke-width="1.3"/><path d="M352,70 v16 M344,78 h16" stroke="#E6EDE8" stroke-width="2" stroke-linecap="round"/><rect x="16" y="116" width="358" height="134" rx="14" fill="#1B2420"/><clipPath id="pncontour116121815"><rect x="16" y="116" width="358" height="134" rx="14"/></clipPath><g clip-path="url(#pncontour116121815)"><path d="M18,116 C12,156.2 26,196.39999999999998 18,250" fill="none" stroke="#D4A373" stroke-width="1.2" opacity="0.7"/><path d="M21,116 C15,156.2 29,196.39999999999998 21,250" fill="none" stroke="#D4A373" stroke-width="1.2" opacity="0.7"/><path d="M24,116 C18,156.2 32,196.39999999999998 24,250" fill="none" stroke="#D4A373" stroke-width="1.2" opacity="0.7"/></g><text x="40.0" y="146.0" font-family="'Source Sans 3', 'Gill Sans', 'Helvetica Neue', sans-serif" font-size="11.5" font-weight="700" fill="#D4A373" text-anchor="start" letter-spacing="2">FROM YOUR JOURNAL</text><text x="40.0" y="174.0" font-family="'Source Serif 4', Georgia, serif" font-size="20" font-weight="500" fill="#E6EDE8" text-anchor="start" font-style="italic">Three years of The Brass</text><text x="40.0" y="200.0" font-family="'Source Serif 4', Georgia, serif" font-size="20" font-weight="500" fill="#E6EDE8" text-anchor="start" font-style="italic">Kettle. Your first visit was</text><text x="40.0" y="226.0" font-family="'Source Serif 4', Georgia, serif" font-size="20" font-weight="500" fill="#E6EDE8" text-anchor="start" font-style="italic">in March 2023.</text><circle cx="344" cy="144" r="18" fill="none" stroke="#6F7F77" stroke-width="1.3"/><circle cx="338" cy="144" r="1.9" fill="#E6EDE8"/><circle cx="344" cy="144" r="1.9" fill="#E6EDE8"/><circle cx="350" cy="144" r="1.9" fill="#E6EDE8"/><text x="16.0" y="280.0" font-family="'Source Sans 3', 'Gill Sans', 'Helvetica Neue', sans-serif" font-size="12" font-weight="700" fill="#9FB0A7" text-anchor="start" letter-spacing="2.2">TO CONFIRM</text><rect x="16" y="296" width="358" height="88" rx="14" fill="#1B2420"/><text x="32.0" y="320.0" font-family="'Source Sans 3', 'Gill Sans', 'Helvetica Neue', sans-serif" font-size="16" font-weight="600" fill="#E6EDE8" text-anchor="start">Saturday afternoon</text><text x="32.0" y="341.0" font-family="'Source Sans 3', 'Gill Sans', 'Helvetica Neue', sans-serif" font-size="13.5" font-weight="400" fill="#9FB0A7" text-anchor="start">about 2 hours · 2 places</text><text x="32.0" y="362.0" font-family="'Source Sans 3', 'Gill Sans', 'Helvetica Neue', sans-serif" font-size="13.5" font-weight="400" fill="#9FB0A7" text-anchor="start">Mill Lane Bakery → Regent Cinema</text><rect x="264" y="310" width="90" height="36" rx="14" fill="#7CC39A"/><text x="309.0" y="333.0" font-family="'Source Sans 3', 'Gill Sans', 'Helvetica Neue', sans-serif" font-size="14" font-weight="600" fill="#0E1F16" text-anchor="middle">Review</text><rect x="16" y="394" width="358" height="108" rx="14" fill="#1B2420"/><text x="32.0" y="418.0" font-family="'Source Sans 3', 'Gill Sans', 'Helvetica Neue', sans-serif" font-size="16" font-weight="600" fill="#E6EDE8" text-anchor="start">Tuesday, 7:10pm to 9:25pm</text><rect x="256" y="402" width="104" height="24" rx="12" fill="none" stroke="#D4A373" stroke-dasharray="4 3" stroke-width="1.3"/><text x="308.0" y="419.0" font-family="'Source Sans 3', 'Gill Sans', 'Helvetica Neue', sans-serif" font-size="12.5" font-weight="600" fill="#D4A373" text-anchor="middle">Unconfirmed</text><text x="32.0" y="440.0" font-family="'Source Sans 3', 'Gill Sans', 'Helvetica Neue', sans-serif" font-size="13.5" font-weight="400" fill="#9FB0A7" text-anchor="start">Near Kiln Street. Which place was it?</text><rect x="32" y="454" width="149.39999999999998" height="36" rx="18" fill="#1B2420" stroke="#6F7F77" stroke-width="1.2"/><text x="44.0" y="477.0" font-family="'Source Sans 3', 'Gill Sans', 'Helvetica Neue', sans-serif" font-size="12.5" font-weight="500" fill="#E6EDE8" text-anchor="start">Kiln Street Kitchen</text><rect x="189.39999999999998" y="454" width="90.0" height="36" rx="18" fill="#1B2420" stroke="#6F7F77" stroke-width="1.2"/><text x="201.4" y="477.0" font-family="'Source Sans 3', 'Gill Sans', 'Helvetica Neue', sans-serif" font-size="12.5" font-weight="500" fill="#E6EDE8" text-anchor="start">The Anchor</text><rect x="287.4" y="454" width="70.19999999999999" height="36" rx="18" fill="#1B2420" stroke="#6F7F77" stroke-width="1.2"/><text x="299.4" y="477.0" font-family="'Source Sans 3', 'Gill Sans', 'Helvetica Neue', sans-serif" font-size="12.5" font-weight="500" fill="#E6EDE8" text-anchor="start">Search…</text><text x="16.0" y="534.0" font-family="'Source Sans 3', 'Gill Sans', 'Helvetica Neue', sans-serif" font-size="12" font-weight="700" fill="#9FB0A7" text-anchor="start" letter-spacing="2.2">SUNDAY 21 SEPTEMBER</text><rect x="16" y="550" width="358" height="116" rx="14" fill="#1B2420"/><text x="32.0" y="572.0" font-family="'Source Sans 3', 'Gill Sans', 'Helvetica Neue', sans-serif" font-size="16" font-weight="600" fill="#E6EDE8" text-anchor="start" font-style="italic">The Brass Kettle</text><text x="32.0" y="592.0" font-family="'Source Sans 3', 'Gill Sans', 'Helvetica Neue', sans-serif" font-size="13" font-weight="400" fill="#9FB0A7" text-anchor="start">Café · Mill Road</text><text x="32.0" y="610.0" font-family="'Source Sans 3', 'Gill Sans', 'Helvetica Neue', sans-serif" font-size="13" font-weight="400" fill="#9FB0A7" text-anchor="start">10:05am to 11:20am, about 1 hour</text><polygon points="39.5,621.5 41.2,625.7 45.7,626.0 42.2,628.9 43.3,633.3 39.5,630.8 35.7,633.3 36.8,628.9 33.3,626.0 37.8,625.7" fill="#D4A373" stroke="#D4A373" stroke-width="1.2"/><polygon points="55.5,621.5 57.2,625.7 61.7,626.0 58.2,628.9 59.3,633.3 55.5,630.8 51.7,633.3 52.8,628.9 49.3,626.0 53.8,625.7" fill="#D4A373" stroke="#D4A373" stroke-width="1.2"/><polygon points="71.5,621.5 73.2,625.7 77.7,626.0 74.2,628.9 75.3,633.3 71.5,630.8 67.7,633.3 68.8,628.9 65.3,626.0 69.8,625.7" fill="#D4A373" stroke="#D4A373" stroke-width="1.2"/><polygon points="87.5,621.5 89.2,625.7 93.7,626.0 90.2,628.9 91.3,633.3 87.5,630.8 83.7,633.3 84.8,628.9 81.3,626.0 85.8,625.7" fill="#D4A373" stroke="#D4A373" stroke-width="1.2"/><polygon points="103.5,621.5 105.2,625.7 109.7,626.0 106.2,628.9 107.3,633.3 103.5,630.8 99.7,633.3 100.8,628.9 97.3,626.0 101.8,625.7" fill="none" stroke="#6F7F77" stroke-width="1.2"/><text x="118.0" y="633.0" font-family="'Source Sans 3', 'Gill Sans', 'Helvetica Neue', sans-serif" font-size="13" font-weight="600" fill="#E6EDE8" text-anchor="start">4/5</text><text x="32.0" y="654.0" font-family="'Source Sans 3', 'Gill Sans', 'Helvetica Neue', sans-serif" font-size="13" font-weight="400" fill="#9FB0A7" text-anchor="start" font-style="italic">Note: Window seat, rain outside.</text><rect x="0" y="760" width="390" height="84" fill="#1B2420"/><line x1="0" y1="760" x2="390" y2="760" stroke="#2B3631" stroke-width="1"/><path d="M41,774 h13 l4,4 v16 h-17 z M45,782 h9 M45,787 h9" fill="none" stroke="#7CC39A" stroke-width="1.8" stroke-linecap="round" stroke-linejoin="round"/><text x="49.0" y="812.0" font-family="'Source Sans 3', 'Gill Sans', 'Helvetica Neue', sans-serif" font-size="11.5" font-weight="600" fill="#7CC39A" text-anchor="middle">Journal</text><path d="M136,780 l3,-7 h14 l3,7 z M138,780 v12 h16 v-12 M144,792 v-6 h4 v6" fill="none" stroke="#9FB0A7" stroke-width="1.8" stroke-linecap="round" stroke-linejoin="round"/><text x="146.0" y="812.0" font-family="'Source Sans 3', 'Gill Sans', 'Helvetica Neue', sans-serif" font-size="11.5" font-weight="500" fill="#9FB0A7" text-anchor="middle">Places</text><rect x="234" y="774" width="18" height="20" rx="3" fill="none" stroke="#9FB0A7" stroke-width="1.8" stroke-linecap="round" stroke-linejoin="round"/><path d="M238,789 l4,-5 l3,3 l3,-4" fill="none" stroke="#9FB0A7" stroke-width="1.8" stroke-linecap="round" stroke-linejoin="round"/><text x="243.0" y="812.0" font-family="'Source Sans 3', 'Gill Sans', 'Helvetica Neue', sans-serif" font-size="11.5" font-weight="500" fill="#9FB0A7" text-anchor="middle">Portrait</text><path d="M331,778 h18 M331,785 h18 M331,792 h18" fill="none" stroke="#9FB0A7" stroke-width="1.8" stroke-linecap="round" stroke-linejoin="round"/><circle cx="337" cy="778" r="2.4" fill="#9FB0A7"/><circle cx="344" cy="785" r="2.4" fill="#9FB0A7"/><circle cx="339" cy="792" r="2.4" fill="#9FB0A7"/><text x="340.0" y="812.0" font-family="'Source Sans 3', 'Gill Sans', 'Helvetica Neue', sans-serif" font-size="11.5" font-weight="500" fill="#9FB0A7" text-anchor="middle">Settings</text><rect x="128" y="830" width="134" height="5" rx="2.5" fill="#E6EDE8"/></g><rect x="-1" y="-1" width="392" height="846" rx="53" fill="none" stroke="#0B0B0C" stroke-width="10"/><rect x="140" y="11" width="110" height="30" rx="15" fill="#0B0B0C"/></g><text x="60.0" y="990.0" font-family="Inter, -apple-system, 'Helvetica Neue', Arial, sans-serif" font-size="13" font-weight="400" fill="#333" text-anchor="start">No count, badge or progress on the queue (CONF-1). No option pre-selected (CONF-3). Rating always also as text (A11Y-2). No pin icons.</text>
</svg>
