<svg xmlns="http://www.w3.org/2000/svg" width="1420" height="1040" viewBox="0 0 1420 1040" role="img" aria-labelledby="t d">
<title id="t">Haunts themes compared, dark</title>
<desc id="d">Modern default and retro Homepage theme on the same home screen, plus the retro reduce-motion fallback.</desc>
<rect width="1420" height="1040" fill="#E9E9E6"/><text x="40.0" y="44.0" font-family="Inter, -apple-system, 'Helvetica Neue', Arial, sans-serif" font-size="24" font-weight="700" fill="#111" text-anchor="start">Themes on the same screen (dark mode): modern default vs retro</text><text x="40.0" y="70.0" font-family="Inter, -apple-system, 'Helvetica Neue', Arial, sans-serif" font-size="14" font-weight="400" fill="#444" text-anchor="start">Same layout, same copy, same order, same controls. Only colour, type, shape and texture change. Default shown as Almanac, the recommended direction; not adopted.</text><text x="60.0" y="104.0" font-family="Inter, -apple-system, 'Helvetica Neue', Arial, sans-serif" font-size="16" font-weight="700" fill="#111" text-anchor="start">1. Modern default (Almanac), Line</text><g transform="translate(60,120)"><clipPath id="phalmanacdarkline"><rect width="390" height="844" rx="52"/></clipPath><g clip-path="url(#phalmanacdarkline)"><rect width="390" height="844" fill="#16181B"/><text x="32.0" y="34.0" font-family="Inter, -apple-system, 'Helvetica Neue', Arial, sans-serif" font-size="16" font-weight="600" fill="#EDE8DE" text-anchor="start">9:41</text><rect x="300" y="24" width="17" height="10" rx="2" fill="#EDE8DE"/><rect x="324" y="22" width="26" height="13" rx="3.5" fill="none" stroke="#EDE8DE" stroke-width="1.2"/><rect x="326.5" y="24.5" width="19" height="8" rx="1.5" fill="#EDE8DE"/><g transform="translate(16,90) scale(0.26)"><text x="0.0" y="0.0" font-family="Newsreader, 'New York', Georgia, 'Times New Roman', serif" font-size="120.0" font-weight="600" fill="#EDE8DE" text-anchor="start" letter-spacing="-1.0">Haunts</text><rect x="0" y="22.0" width="446.0" height="7.0" fill="#E58A6F"/><rect x="0" y="36.0" width="446.0" height="2.5" fill="#E58A6F"/></g><circle cx="352" cy="78" r="20" fill="none" stroke="#7B766D" stroke-width="1.3"/><path d="M352,70 v16 M344,78 h16" stroke="#EDE8DE" stroke-width="2" stroke-linecap="round"/><rect x="16" y="116" width="358" height="3" fill="#EDE8DE"/><rect x="16" y="122" width="358" height="1" fill="#EDE8DE"/><text x="16.0" y="146.0" font-family="Inter, -apple-system, 'Helvetica Neue', Arial, sans-serif" font-size="11.5" font-weight="700" fill="#E8957C" text-anchor="start" letter-spacing="1.6">FROM YOUR JOURNAL</text><text x="16.0" y="174.0" font-family="Newsreader, 'New York', Georgia, 'Times New Roman', serif" font-size="22" font-weight="500" fill="#EDE8DE" text-anchor="start">Three years of The Brass</text><text x="16.0" y="202.0" font-family="Newsreader, 'New York', Georgia, 'Times New Roman', serif" font-size="22" font-weight="500" fill="#EDE8DE" text-anchor="start">Kettle. Your first visit was</text><text x="16.0" y="230.0" font-family="Newsreader, 'New York', Georgia, 'Times New Roman', serif" font-size="22" font-weight="500" fill="#EDE8DE" text-anchor="start">in March 2023.</text><circle cx="352" cy="146" r="18" fill="none" stroke="#7B766D" stroke-width="1.3"/><circle cx="346" cy="146" r="1.9" fill="#EDE8DE"/><circle cx="352" cy="146" r="1.9" fill="#EDE8DE"/><circle cx="358" cy="146" r="1.9" fill="#EDE8DE"/><text x="16.0" y="268.0" font-family="Inter, -apple-system, 'Helvetica Neue', Arial, sans-serif" font-size="12" font-weight="600" fill="#A9A398" text-anchor="start" letter-spacing="1.6">TO CONFIRM</text><line x1="16" y1="276" x2="374" y2="276" stroke="#EDE8DE" stroke-width="1"/><text x="18.0" y="308.0" font-family="Inter, -apple-system, 'Helvetica Neue', Arial, sans-serif" font-size="16" font-weight="600" fill="#EDE8DE" text-anchor="start">Saturday afternoon</text><text x="18.0" y="329.0" font-family="Inter, -apple-system, 'Helvetica Neue', Arial, sans-serif" font-size="13.5" font-weight="400" fill="#A9A398" text-anchor="start">about 2 hours · 2 places</text><text x="18.0" y="350.0" font-family="Inter, -apple-system, 'Helvetica Neue', Arial, sans-serif" font-size="13.5" font-weight="400" fill="#A9A398" text-anchor="start">Mill Lane Bakery → Regent Cinema</text><rect x="278" y="298" width="90" height="36" rx="6" fill="#8DB8E8"/><text x="323.0" y="321.0" font-family="Inter, -apple-system, 'Helvetica Neue', Arial, sans-serif" font-size="14" font-weight="600" fill="#0E1A26" text-anchor="middle">Review</text><line x1="16" y1="364" x2="374" y2="364" stroke="#33373D" stroke-width="1"/><text x="18.0" y="396.0" font-family="Inter, -apple-system, 'Helvetica Neue', Arial, sans-serif" font-size="16" font-weight="600" fill="#EDE8DE" text-anchor="start">Tuesday, 7:10pm to 9:25pm</text><rect x="270" y="380" width="104" height="24" rx="6" fill="none" stroke="#E0B25A" stroke-dasharray="4 3" stroke-width="1.3"/><text x="322.0" y="397.0" font-family="Inter, -apple-system, 'Helvetica Neue', Arial, sans-serif" font-size="12.5" font-weight="600" fill="#E0B25A" text-anchor="middle">Unconfirmed</text><text x="18.0" y="418.0" font-family="Inter, -apple-system, 'Helvetica Neue', Arial, sans-serif" font-size="13.5" font-weight="400" fill="#A9A398" text-anchor="start">Near Kiln Street. Which place was it?</text><rect x="18" y="432" width="149.39999999999998" height="36" rx="6" fill="#202328" stroke="#7B766D" stroke-width="1.2"/><text x="30.0" y="455.0" font-family="Inter, -apple-system, 'Helvetica Neue', Arial, sans-serif" font-size="12.5" font-weight="500" fill="#EDE8DE" text-anchor="start">Kiln Street Kitchen</text><rect x="175.39999999999998" y="432" width="90.0" height="36" rx="6" fill="#202328" stroke="#7B766D" stroke-width="1.2"/><text x="187.4" y="455.0" font-family="Inter, -apple-system, 'Helvetica Neue', Arial, sans-serif" font-size="12.5" font-weight="500" fill="#EDE8DE" text-anchor="start">The Anchor</text><rect x="273.4" y="432" width="70.19999999999999" height="36" rx="6" fill="#202328" stroke="#7B766D" stroke-width="1.2"/><text x="285.4" y="455.0" font-family="Inter, -apple-system, 'Helvetica Neue', Arial, sans-serif" font-size="12.5" font-weight="500" fill="#EDE8DE" text-anchor="start">Search…</text><text x="16.0" y="512.0" font-family="Inter, -apple-system, 'Helvetica Neue', Arial, sans-serif" font-size="12" font-weight="600" fill="#A9A398" text-anchor="start" letter-spacing="1.6">SUNDAY 21 SEPTEMBER</text><line x1="16" y1="520" x2="374" y2="520" stroke="#EDE8DE" stroke-width="1"/><text x="18.0" y="550.0" font-family="Newsreader, 'New York', Georgia, 'Times New Roman', serif" font-size="17" font-weight="600" fill="#EDE8DE" text-anchor="start">The Brass Kettle</text><text x="18.0" y="570.0" font-family="Inter, -apple-system, 'Helvetica Neue', Arial, sans-serif" font-size="13" font-weight="400" fill="#A9A398" text-anchor="start">Café · Mill Road</text><text x="18.0" y="588.0" font-family="Inter, -apple-system, 'Helvetica Neue', Arial, sans-serif" font-size="13" font-weight="400" fill="#A9A398" text-anchor="start">10:05am to 11:20am, about 1 hour</text><polygon points="25.5,599.5 27.2,603.7 31.7,604.0 28.2,606.9 29.3,611.3 25.5,608.8 21.7,611.3 22.8,606.9 19.3,604.0 23.8,603.7" fill="#E8957C" stroke="#E8957C" stroke-width="1.2"/><polygon points="41.5,599.5 43.2,603.7 47.7,604.0 44.2,606.9 45.3,611.3 41.5,608.8 37.7,611.3 38.8,606.9 35.3,604.0 39.8,603.7" fill="#E8957C" stroke="#E8957C" stroke-width="1.2"/><polygon points="57.5,599.5 59.2,603.7 63.7,604.0 60.2,606.9 61.3,611.3 57.5,608.8 53.7,611.3 54.8,606.9 51.3,604.0 55.8,603.7" fill="#E8957C" stroke="#E8957C" stroke-width="1.2"/><polygon points="73.5,599.5 75.2,603.7 79.7,604.0 76.2,606.9 77.3,611.3 73.5,608.8 69.7,611.3 70.8,606.9 67.3,604.0 71.8,603.7" fill="#E8957C" stroke="#E8957C" stroke-width="1.2"/><polygon points="89.5,599.5 91.2,603.7 95.7,604.0 92.2,606.9 93.3,611.3 89.5,608.8 85.7,611.3 86.8,606.9 83.3,604.0 87.8,603.7" fill="none" stroke="#7B766D" stroke-width="1.2"/><text x="104.0" y="611.0" font-family="Inter, -apple-system, 'Helvetica Neue', Arial, sans-serif" font-size="13" font-weight="600" fill="#EDE8DE" text-anchor="start">4/5</text><text x="18.0" y="632.0" font-family="Inter, -apple-system, 'Helvetica Neue', Arial, sans-serif" font-size="13" font-weight="400" fill="#A9A398" text-anchor="start" font-style="italic">Note: Window seat, rain outside.</text><line x1="16" y1="640" x2="374" y2="640" stroke="#33373D" stroke-width="1"/><text x="18.0" y="672.0" font-family="Newsreader, 'New York', Georgia, 'Times New Roman', serif" font-size="17" font-weight="600" fill="#EDE8DE" text-anchor="start">Northgate Theatre</text><text x="18.0" y="692.0" font-family="Inter, -apple-system, 'Helvetica Neue', Arial, sans-serif" font-size="13" font-weight="400" fill="#A9A398" text-anchor="start">Theatre · Northgate</text><text x="18.0" y="710.0" font-family="Inter, -apple-system, 'Helvetica Neue', Arial, sans-serif" font-size="13" font-weight="400" fill="#A9A398" text-anchor="start">7:30pm to 10:05pm, about 2½ hours</text><polygon points="25.5,721.5 27.2,725.7 31.7,726.0 28.2,728.9 29.3,733.3 25.5,730.8 21.7,733.3 22.8,728.9 19.3,726.0 23.8,725.7" fill="#E8957C" stroke="#E8957C" stroke-width="1.2"/><polygon points="41.5,721.5 43.2,725.7 47.7,726.0 44.2,728.9 45.3,733.3 41.5,730.8 37.7,733.3 38.8,728.9 35.3,726.0 39.8,725.7" fill="#E8957C" stroke="#E8957C" stroke-width="1.2"/><polygon points="57.5,721.5 59.2,725.7 63.7,726.0 60.2,728.9 61.3,733.3 57.5,730.8 53.7,733.3 54.8,728.9 51.3,726.0 55.8,725.7" fill="#E8957C" stroke="#E8957C" stroke-width="1.2"/><polygon points="73.5,721.5 75.2,725.7 79.7,726.0 76.2,728.9 77.3,733.3 73.5,730.8 69.7,733.3 70.8,728.9 67.3,726.0 71.8,725.7" fill="#E8957C" stroke="#E8957C" stroke-width="1.2"/><polygon points="89.5,721.5 91.2,725.7 95.7,726.0 92.2,728.9 93.3,733.3 89.5,730.8 85.7,733.3 86.8,728.9 83.3,726.0 87.8,725.7" fill="#E8957C" stroke="#E8957C" stroke-width="1.2"/><text x="104.0" y="733.0" font-family="Inter, -apple-system, 'Helvetica Neue', Arial, sans-serif" font-size="13" font-weight="600" fill="#EDE8DE" text-anchor="start">5/5</text><line x1="16" y1="742" x2="374" y2="742" stroke="#33373D" stroke-width="1"/><rect x="0" y="760" width="390" height="84" fill="#16181B"/><line x1="0" y1="760" x2="390" y2="760" stroke="#33373D" stroke-width="1"/><path d="M41,774 h13 l4,4 v16 h-17 z M45,782 h9 M45,787 h9" fill="none" stroke="#8DB8E8" stroke-width="1.8" stroke-linecap="round" stroke-linejoin="round"/><text x="49.0" y="812.0" font-family="Inter, -apple-system, 'Helvetica Neue', Arial, sans-serif" font-size="11.5" font-weight="600" fill="#8DB8E8" text-anchor="middle">Journal</text><path d="M136,780 l3,-7 h14 l3,7 z M138,780 v12 h16 v-12 M144,792 v-6 h4 v6" fill="none" stroke="#A9A398" stroke-width="1.8" stroke-linecap="round" stroke-linejoin="round"/><text x="146.0" y="812.0" font-family="Inter, -apple-system, 'Helvetica Neue', Arial, sans-serif" font-size="11.5" font-weight="500" fill="#A9A398" text-anchor="middle">Places</text><rect x="234" y="774" width="18" height="20" rx="3" fill="none" stroke="#A9A398" stroke-width="1.8" stroke-linecap="round" stroke-linejoin="round"/><path d="M238,789 l4,-5 l3,3 l3,-4" fill="none" stroke="#A9A398" stroke-width="1.8" stroke-linecap="round" stroke-linejoin="round"/><text x="243.0" y="812.0" font-family="Inter, -apple-system, 'Helvetica Neue', Arial, sans-serif" font-size="11.5" font-weight="500" fill="#A9A398" text-anchor="middle">Portrait</text><path d="M331,778 h18 M331,785 h18 M331,792 h18" fill="none" stroke="#A9A398" stroke-width="1.8" stroke-linecap="round" stroke-linejoin="round"/><circle cx="337" cy="778" r="2.4" fill="#A9A398"/><circle cx="344" cy="785" r="2.4" fill="#A9A398"/><circle cx="339" cy="792" r="2.4" fill="#A9A398"/><text x="340.0" y="812.0" font-family="Inter, -apple-system, 'Helvetica Neue', Arial, sans-serif" font-size="11.5" font-weight="500" fill="#A9A398" text-anchor="middle">Settings</text><rect x="128" y="830" width="134" height="5" rx="2.5" fill="#EDE8DE"/></g><rect x="-1" y="-1" width="392" height="846" rx="53" fill="none" stroke="#0B0B0C" stroke-width="10"/><rect x="140" y="11" width="110" height="30" rx="15" fill="#0B0B0C"/></g><text x="510.0" y="104.0" font-family="Inter, -apple-system, 'Helvetica Neue', Arial, sans-serif" font-size="16" font-weight="700" fill="#111" text-anchor="start">2. Homepage (retro), user chose Ticker</text><g transform="translate(510,120)"><clipPath id="phhomepagedarkticker"><rect width="390" height="844" rx="52"/></clipPath><g clip-path="url(#phhomepagedarkticker)"><rect width="390" height="844" fill="#000022"/><text x="32.0" y="34.0" font-family="'DejaVu Sans', Verdana, Tahoma, sans-serif" font-size="16" font-weight="600" fill="#E8E8E8" text-anchor="start">9:41</text><rect x="300" y="24" width="17" height="10" rx="2" fill="#E8E8E8"/><rect x="324" y="22" width="26" height="13" rx="3.5" fill="none" stroke="#E8E8E8" stroke-width="1.2"/><rect x="326.5" y="24.5" width="19" height="8" rx="1.5" fill="#E8E8E8"/><defs><linearGradient id="hg000022" x1="0" y1="0" x2="0" y2="1"><stop offset="0" stop-color="#1B1B55"/><stop offset="1" stop-color="#33337A"/></linearGradient></defs><rect x="0" y="48" width="390" height="62" fill="url(#hg000022)"/><g transform="translate(16,88) scale(0.5)"><text x="0.0" y="0.0" font-family="Gelasio, Georgia, 'Times New Roman', serif" font-size="64.0" font-weight="700" fill="#FFFFFF" text-anchor="start">Haunts</text></g><rect x="318" y="58" width="56" height="42" fill="#2B2B5E" stroke="#8A8AC0" stroke-width="1.5"/><text x="346.0" y="85.0" font-family="'DejaVu Sans', Verdana, Tahoma, sans-serif" font-size="12.5" font-weight="700" fill="#E8E8E8" text-anchor="middle">+ Add</text><rect x="16" y="122" width="358" height="58" fill="#1A1A00" stroke="#6D7FB0"/><rect x="16" y="122" width="78" height="58" fill="#33337A"/><text x="24.0" y="148.0" font-family="Silkscreen, 'Courier New', monospace" font-size="10" font-weight="400" fill="#FFFFFF" text-anchor="start">FROM YOUR</text><text x="24.0" y="164.0" font-family="Silkscreen, 'Courier New', monospace" font-size="10" font-weight="400" fill="#FFFFFF" text-anchor="start">JOURNAL</text><clipPath id="tkhomepage122"><rect x="96" y="122" width="172" height="58"/></clipPath><g clip-path="url(#tkhomepage122)"><text x="-16.0" y="157.0" font-family="'DejaVu Sans', Verdana, Tahoma, sans-serif" font-size="15" font-weight="400" fill="#FFFF99" text-anchor="start">Three years of The Brass Kettle. Your first visit was in March 2023.   »   You rate cafés 4.2 and restaurants 3.8, across 14 and 9 rated visits.   »   Sundays at Mill Lane Bakery, since 2024.</text></g><rect x="270" y="129" width="46" height="44" fill="#2B2B5E" stroke="#8A8AC0" stroke-width="1.5"/><text x="293.0" y="156.0" font-family="'DejaVu Sans', Verdana, Tahoma, sans-serif" font-size="16" font-weight="700" fill="#E8E8E8" text-anchor="middle">···</text><rect x="320" y="129" width="46" height="44" fill="#2B2B5E" stroke="#8A8AC0" stroke-width="1.5"/><rect x="336" y="142" width="5" height="18" fill="#E8E8E8"/><rect x="345" y="142" width="5" height="18" fill="#E8E8E8"/><rect x="16" y="222" width="358" height="216" fill="#0B0B33" stroke="#6D7FB0"/><defs><linearGradient id="bt000022194" x1="0" y1="0" x2="0" y2="1"><stop offset="0" stop-color="#2E2E78"/><stop offset="1" stop-color="#1B1B55"/></linearGradient></defs><rect x="16" y="194" width="358" height="28" fill="url(#bt000022194)" stroke="#6D7FB0"/><text x="26.0" y="213.0" font-family="Gelasio, Georgia, 'Times New Roman', serif" font-size="14" font-weight="700" fill="#FFCC66" text-anchor="start">» To confirm</text><text x="28.0" y="256.0" font-family="'DejaVu Sans', Verdana, Tahoma, sans-serif" font-size="14.5" font-weight="600" fill="#E8E8E8" text-anchor="start">Saturday afternoon</text><text x="28.0" y="277.0" font-family="'DejaVu Sans', Verdana, Tahoma, sans-serif" font-size="13.5" font-weight="400" fill="#B4B4C8" text-anchor="start">about 2 hours · 2 places</text><text x="28.0" y="298.0" font-family="'DejaVu Sans', Verdana, Tahoma, sans-serif" font-size="13.5" font-weight="400" fill="#B4B4C8" text-anchor="start">Mill Lane Bakery → Regent Cinema</text><rect x="268" y="246" width="90" height="36" fill="#2B2B5E" stroke="#8A8AC0" stroke-width="1.5"/><path d="M269.5,280 V247.5 H356.5" stroke="#FFFFFF" stroke-width="1.5" fill="none" opacity="0.7"/><text x="313.0" y="269.0" font-family="'DejaVu Sans', Verdana, Tahoma, sans-serif" font-size="13" font-weight="700" fill="#E8E8E8" text-anchor="middle">Review »</text><line x1="16" y1="312" x2="374" y2="312" stroke="#2A2A5A" stroke-width="1"/><text x="28.0" y="344.0" font-family="'DejaVu Sans', Verdana, Tahoma, sans-serif" font-size="14.5" font-weight="600" fill="#E8E8E8" text-anchor="start">Tuesday, 7:10pm to 9:25pm</text><rect x="260" y="328" width="104" height="24" rx="0" fill="none" stroke="#FFB870" stroke-dasharray="4 3" stroke-width="1.3"/><text x="312.0" y="345.0" font-family="'DejaVu Sans', Verdana, Tahoma, sans-serif" font-size="12.5" font-weight="600" fill="#FFB870" text-anchor="middle">Unconfirmed</text><text x="28.0" y="366.0" font-family="'DejaVu Sans', Verdana, Tahoma, sans-serif" font-size="13.5" font-weight="400" fill="#B4B4C8" text-anchor="start">Near Kiln Street. Which place was it?</text><rect x="28" y="380" width="158.9" height="34" fill="#0B0B33" stroke="#6D7FB0"/><text x="39.0" y="402.0" font-family="'DejaVu Sans', Verdana, Tahoma, sans-serif" font-size="12.5" font-weight="400" fill="#66CCFF" text-anchor="start" text-decoration="underline">Kiln Street Kitchen</text><rect x="194.9" y="380" width="95.0" height="34" fill="#0B0B33" stroke="#6D7FB0"/><text x="205.9" y="402.0" font-family="'DejaVu Sans', Verdana, Tahoma, sans-serif" font-size="12.5" font-weight="400" fill="#66CCFF" text-anchor="start" text-decoration="underline">The Anchor</text><rect x="297.9" y="380" width="73.69999999999999" height="34" fill="#0B0B33" stroke="#6D7FB0"/><text x="308.9" y="402.0" font-family="'DejaVu Sans', Verdana, Tahoma, sans-serif" font-size="12.5" font-weight="400" fill="#66CCFF" text-anchor="start" text-decoration="underline">Search…</text><defs><linearGradient id="bt000022446" x1="0" y1="0" x2="0" y2="1"><stop offset="0" stop-color="#2E2E78"/><stop offset="1" stop-color="#1B1B55"/></linearGradient></defs><rect x="16" y="446" width="358" height="28" fill="url(#bt000022446)" stroke="#6D7FB0"/><text x="26.0" y="465.0" font-family="Gelasio, Georgia, 'Times New Roman', serif" font-size="14" font-weight="700" fill="#FFCC66" text-anchor="start">» Your journal</text><rect x="16" y="474" width="358" height="278" fill="#0B0B33" stroke="#6D7FB0"/><text x="26.0" y="498.0" font-family="'DejaVu Sans', Verdana, Tahoma, sans-serif" font-size="13" font-weight="700" fill="#E8E8E8" text-anchor="start">Sunday 21 September</text><line x1="26" y1="506" x2="364" y2="506" stroke="#2A2A5A" stroke-dasharray="2 2"/><text x="28.0" y="536.0" font-family="'DejaVu Sans', Verdana, Tahoma, sans-serif" font-size="16" font-weight="700" fill="#66CCFF" text-anchor="start" text-decoration="underline">The Brass Kettle</text><text x="28.0" y="556.0" font-family="'DejaVu Sans', Verdana, Tahoma, sans-serif" font-size="13" font-weight="400" fill="#B4B4C8" text-anchor="start">Café · Mill Road</text><text x="28.0" y="574.0" font-family="'DejaVu Sans', Verdana, Tahoma, sans-serif" font-size="13" font-weight="400" fill="#B4B4C8" text-anchor="start">10:05am to 11:20am, about 1 hour</text><polygon points="35.5,585.5 37.2,589.7 41.7,590.0 38.2,592.9 39.3,597.3 35.5,594.8 31.7,597.3 32.8,592.9 29.3,590.0 33.8,589.7" fill="#FFCC66" stroke="#FFCC66" stroke-width="1.2"/><polygon points="51.5,585.5 53.2,589.7 57.7,590.0 54.2,592.9 55.3,597.3 51.5,594.8 47.7,597.3 48.8,592.9 45.3,590.0 49.8,589.7" fill="#FFCC66" stroke="#FFCC66" stroke-width="1.2"/><polygon points="67.5,585.5 69.2,589.7 73.7,590.0 70.2,592.9 71.3,597.3 67.5,594.8 63.7,597.3 64.8,592.9 61.3,590.0 65.8,589.7" fill="#FFCC66" stroke="#FFCC66" stroke-width="1.2"/><polygon points="83.5,585.5 85.2,589.7 89.7,590.0 86.2,592.9 87.3,597.3 83.5,594.8 79.7,597.3 80.8,592.9 77.3,590.0 81.8,589.7" fill="#FFCC66" stroke="#FFCC66" stroke-width="1.2"/><polygon points="99.5,585.5 101.2,589.7 105.7,590.0 102.2,592.9 103.3,597.3 99.5,594.8 95.7,597.3 96.8,592.9 93.3,590.0 97.8,589.7" fill="none" stroke="#6D7FB0" stroke-width="1.2"/><text x="114.0" y="597.0" font-family="'DejaVu Sans', Verdana, Tahoma, sans-serif" font-size="13" font-weight="600" fill="#E8E8E8" text-anchor="start">4/5</text><text x="28.0" y="618.0" font-family="'DejaVu Sans', Verdana, Tahoma, sans-serif" font-size="13" font-weight="400" fill="#B4B4C8" text-anchor="start" font-style="italic">Note: Window seat, rain outside.</text><line x1="26" y1="626" x2="364" y2="626" stroke="#2A2A5A" stroke-width="1"/><text x="28.0" y="658.0" font-family="'DejaVu Sans', Verdana, Tahoma, sans-serif" font-size="16" font-weight="700" fill="#66CCFF" text-anchor="start" text-decoration="underline">Northgate Theatre</text><text x="28.0" y="678.0" font-family="'DejaVu Sans', Verdana, Tahoma, sans-serif" font-size="13" font-weight="400" fill="#B4B4C8" text-anchor="start">Theatre · Northgate</text><text x="28.0" y="696.0" font-family="'DejaVu Sans', Verdana, Tahoma, sans-serif" font-size="13" font-weight="400" fill="#B4B4C8" text-anchor="start">7:30pm to 10:05pm, about 2½ hours</text><polygon points="35.5,707.5 37.2,711.7 41.7,712.0 38.2,714.9 39.3,719.3 35.5,716.8 31.7,719.3 32.8,714.9 29.3,712.0 33.8,711.7" fill="#FFCC66" stroke="#FFCC66" stroke-width="1.2"/><polygon points="51.5,707.5 53.2,711.7 57.7,712.0 54.2,714.9 55.3,719.3 51.5,716.8 47.7,719.3 48.8,714.9 45.3,712.0 49.8,711.7" fill="#FFCC66" stroke="#FFCC66" stroke-width="1.2"/><polygon points="67.5,707.5 69.2,711.7 73.7,712.0 70.2,714.9 71.3,719.3 67.5,716.8 63.7,719.3 64.8,714.9 61.3,712.0 65.8,711.7" fill="#FFCC66" stroke="#FFCC66" stroke-width="1.2"/><polygon points="83.5,707.5 85.2,711.7 89.7,712.0 86.2,714.9 87.3,719.3 83.5,716.8 79.7,719.3 80.8,714.9 77.3,712.0 81.8,711.7" fill="#FFCC66" stroke="#FFCC66" stroke-width="1.2"/><polygon points="99.5,707.5 101.2,711.7 105.7,712.0 102.2,714.9 103.3,719.3 99.5,716.8 95.7,719.3 96.8,714.9 93.3,712.0 97.8,711.7" fill="#FFCC66" stroke="#FFCC66" stroke-width="1.2"/><text x="114.0" y="719.0" font-family="'DejaVu Sans', Verdana, Tahoma, sans-serif" font-size="13" font-weight="600" fill="#E8E8E8" text-anchor="start">5/5</text><line x1="26" y1="728" x2="364" y2="728" stroke="#2A2A5A" stroke-width="1"/><rect x="0" y="760" width="390" height="84" fill="#1B1B55"/><line x1="0" y1="760" x2="390" y2="760" stroke="#6D7FB0" stroke-width="2"/><rect x="8" y="768" width="88" height="44" fill="#FFCC66" stroke="#6D7FB0" stroke-width="1.2"/><text x="52.0" y="795.0" font-family="'DejaVu Sans', Verdana, Tahoma, sans-serif" font-size="13" font-weight="700" fill="#000022" text-anchor="middle">Journal</text><rect x="102" y="768" width="88" height="44" fill="#16164A" stroke="#6D7FB0" stroke-width="1.2"/><text x="146.0" y="795.0" font-family="'DejaVu Sans', Verdana, Tahoma, sans-serif" font-size="13" font-weight="400" fill="#66CCFF" text-anchor="middle" text-decoration="underline">Places</text><rect x="196" y="768" width="88" height="44" fill="#16164A" stroke="#6D7FB0" stroke-width="1.2"/><text x="240.0" y="795.0" font-family="'DejaVu Sans', Verdana, Tahoma, sans-serif" font-size="13" font-weight="400" fill="#66CCFF" text-anchor="middle" text-decoration="underline">Portrait</text><rect x="290" y="768" width="88" height="44" fill="#16164A" stroke="#6D7FB0" stroke-width="1.2"/><text x="334.0" y="795.0" font-family="'DejaVu Sans', Verdana, Tahoma, sans-serif" font-size="13" font-weight="400" fill="#66CCFF" text-anchor="middle" text-decoration="underline">Settings</text><rect x="128" y="830" width="134" height="5" rx="2.5" fill="#E8E8E8"/></g><rect x="-1" y="-1" width="392" height="846" rx="53" fill="none" stroke="#0B0B0C" stroke-width="10"/><rect x="140" y="11" width="110" height="30" rx="15" fill="#0B0B0C"/></g><text x="960.0" y="104.0" font-family="Inter, -apple-system, 'Helvetica Neue', Arial, sans-serif" font-size="16" font-weight="700" fill="#111" text-anchor="start">3. Homepage, Reduce Motion on: a still line</text><g transform="translate(960,120)"><clipPath id="phhomepagedarkline-fallback"><rect width="390" height="844" rx="52"/></clipPath><g clip-path="url(#phhomepagedarkline-fallback)"><rect width="390" height="844" fill="#000022"/><text x="32.0" y="34.0" font-family="'DejaVu Sans', Verdana, Tahoma, sans-serif" font-size="16" font-weight="600" fill="#E8E8E8" text-anchor="start">9:41</text><rect x="300" y="24" width="17" height="10" rx="2" fill="#E8E8E8"/><rect x="324" y="22" width="26" height="13" rx="3.5" fill="none" stroke="#E8E8E8" stroke-width="1.2"/><rect x="326.5" y="24.5" width="19" height="8" rx="1.5" fill="#E8E8E8"/><defs><linearGradient id="hg000022" x1="0" y1="0" x2="0" y2="1"><stop offset="0" stop-color="#1B1B55"/><stop offset="1" stop-color="#33337A"/></linearGradient></defs><rect x="0" y="48" width="390" height="62" fill="url(#hg000022)"/><g transform="translate(16,88) scale(0.5)"><text x="0.0" y="0.0" font-family="Gelasio, Georgia, 'Times New Roman', serif" font-size="64.0" font-weight="700" fill="#FFFFFF" text-anchor="start">Haunts</text></g><rect x="318" y="58" width="56" height="42" fill="#2B2B5E" stroke="#8A8AC0" stroke-width="1.5"/><text x="346.0" y="85.0" font-family="'DejaVu Sans', Verdana, Tahoma, sans-serif" font-size="12.5" font-weight="700" fill="#E8E8E8" text-anchor="middle">+ Add</text><rect x="16" y="122" width="358" height="94" fill="#1A1A00" stroke="#6D7FB0"/><text x="26.0" y="142.0" font-family="Silkscreen, 'Courier New', monospace" font-size="11" font-weight="400" fill="#FFFF99" text-anchor="start">FROM YOUR JOURNAL</text><text x="26.0" y="164.0" font-family="'DejaVu Sans', Verdana, Tahoma, sans-serif" font-size="15" font-weight="400" fill="#FFFF99" text-anchor="start">Three years of The Brass</text><text x="26.0" y="184.0" font-family="'DejaVu Sans', Verdana, Tahoma, sans-serif" font-size="15" font-weight="400" fill="#FFFF99" text-anchor="start">Kettle. Your first visit</text><text x="26.0" y="204.0" font-family="'DejaVu Sans', Verdana, Tahoma, sans-serif" font-size="15" font-weight="400" fill="#FFFF99" text-anchor="start">was in March 2023.</text><rect x="320" y="147.0" width="46" height="44" fill="#2B2B5E" stroke="#8A8AC0" stroke-width="1.5"/><text x="343.0" y="174.0" font-family="'DejaVu Sans', Verdana, Tahoma, sans-serif" font-size="16" font-weight="700" fill="#E8E8E8" text-anchor="middle">···</text><rect x="16" y="258" width="358" height="216" fill="#0B0B33" stroke="#6D7FB0"/><defs><linearGradient id="bt000022230" x1="0" y1="0" x2="0" y2="1"><stop offset="0" stop-color="#2E2E78"/><stop offset="1" stop-color="#1B1B55"/></linearGradient></defs><rect x="16" y="230" width="358" height="28" fill="url(#bt000022230)" stroke="#6D7FB0"/><text x="26.0" y="249.0" font-family="Gelasio, Georgia, 'Times New Roman', serif" font-size="14" font-weight="700" fill="#FFCC66" text-anchor="start">» To confirm</text><text x="28.0" y="292.0" font-family="'DejaVu Sans', Verdana, Tahoma, sans-serif" font-size="14.5" font-weight="600" fill="#E8E8E8" text-anchor="start">Saturday afternoon</text><text x="28.0" y="313.0" font-family="'DejaVu Sans', Verdana, Tahoma, sans-serif" font-size="13.5" font-weight="400" fill="#B4B4C8" text-anchor="start">about 2 hours · 2 places</text><text x="28.0" y="334.0" font-family="'DejaVu Sans', Verdana, Tahoma, sans-serif" font-size="13.5" font-weight="400" fill="#B4B4C8" text-anchor="start">Mill Lane Bakery → Regent Cinema</text><rect x="268" y="282" width="90" height="36" fill="#2B2B5E" stroke="#8A8AC0" stroke-width="1.5"/><path d="M269.5,316 V283.5 H356.5" stroke="#FFFFFF" stroke-width="1.5" fill="none" opacity="0.7"/><text x="313.0" y="305.0" font-family="'DejaVu Sans', Verdana, Tahoma, sans-serif" font-size="13" font-weight="700" fill="#E8E8E8" text-anchor="middle">Review »</text><line x1="16" y1="348" x2="374" y2="348" stroke="#2A2A5A" stroke-width="1"/><text x="28.0" y="380.0" font-family="'DejaVu Sans', Verdana, Tahoma, sans-serif" font-size="14.5" font-weight="600" fill="#E8E8E8" text-anchor="start">Tuesday, 7:10pm to 9:25pm</text><rect x="260" y="364" width="104" height="24" rx="0" fill="none" stroke="#FFB870" stroke-dasharray="4 3" stroke-width="1.3"/><text x="312.0" y="381.0" font-family="'DejaVu Sans', Verdana, Tahoma, sans-serif" font-size="12.5" font-weight="600" fill="#FFB870" text-anchor="middle">Unconfirmed</text><text x="28.0" y="402.0" font-family="'DejaVu Sans', Verdana, Tahoma, sans-serif" font-size="13.5" font-weight="400" fill="#B4B4C8" text-anchor="start">Near Kiln Street. Which place was it?</text><rect x="28" y="416" width="158.9" height="34" fill="#0B0B33" stroke="#6D7FB0"/><text x="39.0" y="438.0" font-family="'DejaVu Sans', Verdana, Tahoma, sans-serif" font-size="12.5" font-weight="400" fill="#66CCFF" text-anchor="start" text-decoration="underline">Kiln Street Kitchen</text><rect x="194.9" y="416" width="95.0" height="34" fill="#0B0B33" stroke="#6D7FB0"/><text x="205.9" y="438.0" font-family="'DejaVu Sans', Verdana, Tahoma, sans-serif" font-size="12.5" font-weight="400" fill="#66CCFF" text-anchor="start" text-decoration="underline">The Anchor</text><rect x="297.9" y="416" width="73.69999999999999" height="34" fill="#0B0B33" stroke="#6D7FB0"/><text x="308.9" y="438.0" font-family="'DejaVu Sans', Verdana, Tahoma, sans-serif" font-size="12.5" font-weight="400" fill="#66CCFF" text-anchor="start" text-decoration="underline">Search…</text><defs><linearGradient id="bt000022482" x1="0" y1="0" x2="0" y2="1"><stop offset="0" stop-color="#2E2E78"/><stop offset="1" stop-color="#1B1B55"/></linearGradient></defs><rect x="16" y="482" width="358" height="28" fill="url(#bt000022482)" stroke="#6D7FB0"/><text x="26.0" y="501.0" font-family="Gelasio, Georgia, 'Times New Roman', serif" font-size="14" font-weight="700" fill="#FFCC66" text-anchor="start">» Your journal</text><rect x="16" y="510" width="358" height="242" fill="#0B0B33" stroke="#6D7FB0"/><text x="26.0" y="534.0" font-family="'DejaVu Sans', Verdana, Tahoma, sans-serif" font-size="13" font-weight="700" fill="#E8E8E8" text-anchor="start">Sunday 21 September</text><line x1="26" y1="542" x2="364" y2="542" stroke="#2A2A5A" stroke-dasharray="2 2"/><text x="28.0" y="572.0" font-family="'DejaVu Sans', Verdana, Tahoma, sans-serif" font-size="16" font-weight="700" fill="#66CCFF" text-anchor="start" text-decoration="underline">The Brass Kettle</text><text x="28.0" y="592.0" font-family="'DejaVu Sans', Verdana, Tahoma, sans-serif" font-size="13" font-weight="400" fill="#B4B4C8" text-anchor="start">Café · Mill Road</text><text x="28.0" y="610.0" font-family="'DejaVu Sans', Verdana, Tahoma, sans-serif" font-size="13" font-weight="400" fill="#B4B4C8" text-anchor="start">10:05am to 11:20am, about 1 hour</text><polygon points="35.5,621.5 37.2,625.7 41.7,626.0 38.2,628.9 39.3,633.3 35.5,630.8 31.7,633.3 32.8,628.9 29.3,626.0 33.8,625.7" fill="#FFCC66" stroke="#FFCC66" stroke-width="1.2"/><polygon points="51.5,621.5 53.2,625.7 57.7,626.0 54.2,628.9 55.3,633.3 51.5,630.8 47.7,633.3 48.8,628.9 45.3,626.0 49.8,625.7" fill="#FFCC66" stroke="#FFCC66" stroke-width="1.2"/><polygon points="67.5,621.5 69.2,625.7 73.7,626.0 70.2,628.9 71.3,633.3 67.5,630.8 63.7,633.3 64.8,628.9 61.3,626.0 65.8,625.7" fill="#FFCC66" stroke="#FFCC66" stroke-width="1.2"/><polygon points="83.5,621.5 85.2,625.7 89.7,626.0 86.2,628.9 87.3,633.3 83.5,630.8 79.7,633.3 80.8,628.9 77.3,626.0 81.8,625.7" fill="#FFCC66" stroke="#FFCC66" stroke-width="1.2"/><polygon points="99.5,621.5 101.2,625.7 105.7,626.0 102.2,628.9 103.3,633.3 99.5,630.8 95.7,633.3 96.8,628.9 93.3,626.0 97.8,625.7" fill="none" stroke="#6D7FB0" stroke-width="1.2"/><text x="114.0" y="633.0" font-family="'DejaVu Sans', Verdana, Tahoma, sans-serif" font-size="13" font-weight="600" fill="#E8E8E8" text-anchor="start">4/5</text><text x="28.0" y="654.0" font-family="'DejaVu Sans', Verdana, Tahoma, sans-serif" font-size="13" font-weight="400" fill="#B4B4C8" text-anchor="start" font-style="italic">Note: Window seat, rain outside.</text><line x1="26" y1="662" x2="364" y2="662" stroke="#2A2A5A" stroke-width="1"/><rect x="0" y="760" width="390" height="84" fill="#1B1B55"/><line x1="0" y1="760" x2="390" y2="760" stroke="#6D7FB0" stroke-width="2"/><rect x="8" y="768" width="88" height="44" fill="#FFCC66" stroke="#6D7FB0" stroke-width="1.2"/><text x="52.0" y="795.0" font-family="'DejaVu Sans', Verdana, Tahoma, sans-serif" font-size="13" font-weight="700" fill="#000022" text-anchor="middle">Journal</text><rect x="102" y="768" width="88" height="44" fill="#16164A" stroke="#6D7FB0" stroke-width="1.2"/><text x="146.0" y="795.0" font-family="'DejaVu Sans', Verdana, Tahoma, sans-serif" font-size="13" font-weight="400" fill="#66CCFF" text-anchor="middle" text-decoration="underline">Places</text><rect x="196" y="768" width="88" height="44" fill="#16164A" stroke="#6D7FB0" stroke-width="1.2"/><text x="240.0" y="795.0" font-family="'DejaVu Sans', Verdana, Tahoma, sans-serif" font-size="13" font-weight="400" fill="#66CCFF" text-anchor="middle" text-decoration="underline">Portrait</text><rect x="290" y="768" width="88" height="44" fill="#16164A" stroke="#6D7FB0" stroke-width="1.2"/><text x="334.0" y="795.0" font-family="'DejaVu Sans', Verdana, Tahoma, sans-serif" font-size="13" font-weight="400" fill="#66CCFF" text-anchor="middle" text-decoration="underline">Settings</text><rect x="128" y="830" width="134" height="5" rx="2.5" fill="#E8E8E8"/></g><rect x="-1" y="-1" width="392" height="846" rx="53" fill="none" stroke="#0B0B0C" stroke-width="10"/><rect x="140" y="11" width="110" height="30" rx="15" fill="#0B0B0C"/></g><text x="60.0" y="1000.0" font-family="Inter, -apple-system, 'Helvetica Neue', Arial, sans-serif" font-size="13" font-weight="400" fill="#333" text-anchor="start">The theme never picks the headline appearance: Line/Card/Ticker/Off is the user's own setting (HEAD-2). The ticker has a pause control whenever it moves (HEAD-9)</text><text x="60.0" y="1020.0" font-family="Inter, -apple-system, 'Helvetica Neue', Arial, sans-serif" font-size="13" font-weight="400" fill="#333" text-anchor="start">and becomes a still line under Reduce Motion, a screen reader or large text (HEAD-10, HEAD-11). No blink, no hit counter, no badges.</text>
</svg>
